# xmcd
#
# Track frame offsets: 
#        150
#        10042
#        27822
#        45268
#        67684
#        85961
#        105865
#        118269
#        134536
#        148318
#        157210
#        176854
#        192659
#
# Disc length: 2775 seconds
#
# Revision: 1
# Processed by: cddbd v1.5.2PL0 Copyright (c) Steve Scherf et al.
# Submitted via: ExactAudioCopy v0.99pb5
#
DISCID=b10ad50d
DTITLE=Kenny "Blue" Ray - Keep the Mojo Workin'
DYEAR=1900
DGENRE=Blues
TTITLE0=She's My Morning Coffee
TTITLE1=Keep The Mojo Workin'
TTITLE2=Unseen Eye
TTITLE3=Backstroke
TTITLE4=bad Boy
TTITLE5=Chula Juana Mama
TTITLE6=Blues For Bill (Dedicated to William Clarke)
TTITLE7=Mean Old World
TTITLE8=Hush Puppies
TTITLE9=I Believe
TTITLE10=Brits, Greens and Gravy
TTITLE11=You Don't Have To Go
TTITLE12=Blue Cat Hop
EXTD=
EXTT0=
EXTT1=
EXTT2=
EXTT3=
EXTT4=
EXTT5=
EXTT6=
EXTT7=
EXTT8=
EXTT9=
EXTT10=
EXTT11=
EXTT12=
PLAYORDER=
